# xmcd
#
# Track frame offsets:
#	150
#	15040
#	31450
#	49810
#	69572
#	83567
#	96555
#	113950
#	134827
#	147102
#
# Disc length: 2197 seconds
#
# Revision: 2
# Processed by: cddbd v1.4PL0 Copyright (c) Steve Scherf et al.
# Submitted via: audiograbber 1.81.03
#
DISCID=8608930a
DTITLE=Various Artist - Zydeco Party (ED CD 7045)
DYEAR=1998
DGENRE=Blues
TTITLE0=John Delafose and The Eunice Playboys - Oh 'Tit Fille
TTITLE1=Chris Ardoin and Double Clutchin' - Ardoin Two Step
TTITLE2=Nathan and The Zydeco Cha Chas - Festival Zydeco
TTITLE3=Beau Jocque and The Zydeco Hi-Rollers - Comin' In
TTITLE4=Geno Delafose - Wedding Day Waltz
TTITLE5=Buckwheat Zydeco - Lache Pas La Patate
TTITLE6=Lynn August - Hippy Ty O
TTITLE7=L'il Brian and The Zydeco Travelers - Zydeco Dreamer
TTITLE8=Fernest Arceneaux - Bye Bye Lucille
TTITLE9=Boozoo Chavis and The Majic Sounds - I'm Going To The Country To Get Me A
TTITLE9=Mojo Band
EXTD=(c)1948 Easydisc ED CD 7015\nupc 712136704528
EXTT0=
EXTT1=
EXTT2=
EXTT3=
EXTT4=
EXTT5=
EXTT6=
EXTT7=
EXTT8=
EXTT9=
PLAYORDER=
